<?xml version="1.0" ?><svg viewBox="0 0 64 64" xmlns="http://www.w3.org/2000/svg"><g id="virus-covid19-travel-coronavirus-airplane"><path d="M39,32V15.9a14.98,14.98,0,0,0-.621-4.2,9.989,9.989,0,0,1-12.758,0A14.98,14.98,0,0,0,25,15.9V32Z" style="fill:#9bc9ff"/><path d="M38.379,11.7A14.988,14.988,0,0,0,33.762,4.51l-1.111-.952a1,1,0,0,0-1.3,0l-1.111.952A14.988,14.988,0,0,0,25.621,11.7a9.989,9.989,0,0,0,12.758,0Z" style="fill:#9bc9ff"/><path d="M61,39l-.626-2.192a12,12,0,0,0-5.756-7.218L39,21V32Z" style="fill:#9bc9ff"/><path d="M25,21,9.382,29.59a12,12,0,0,0-5.756,7.218L3,39l22-7Z" style="fill:#9bc9ff"/><rect height="4" style="fill:#9bc9ff" width="8" x="28" y="35"/><rect height="19" style="fill:#9bc9ff" width="3" x="20" y="39"/><rect height="19" style="fill:#9bc9ff" width="3" x="41" y="39"/><path d="M20,59.5a1.5,1.5,0,0,0,3,0V58H20Z" style="fill:#9bc9ff"/><path d="M41,59.5a1.5,1.5,0,0,0,3,0V58H41Z" style="fill:#9bc9ff"/><rect height="4" style="fill:#9bc9ff" transform="translate(-28.276 35.737) rotate(-45)" width="4" x="27" y="50"/><polygon points="34 49 38 49 35.965 45 34 49" style="fill:#9bc9ff"/><circle cx="28" cy="44" r="2" style="fill:#9bc9ff"/><circle cx="52" cy="12" r="3" style="fill:#9bc9ff"/><path d="M61.96,38.73l-.63-2.2a13.049,13.049,0,0,0-6.23-7.82L40,20.41V15.9a15.9,15.9,0,0,0-.64-4.42.5.5,0,0,0-.04-.13,15.984,15.984,0,0,0-4.91-7.6L33.3,2.8a1.977,1.977,0,0,0-2.6,0l-1.11.95a15.984,15.984,0,0,0-4.91,7.6.5.5,0,0,0-.04.13A15.9,15.9,0,0,0,24,15.9v4.51L8.9,28.71a13.049,13.049,0,0,0-6.23,7.82l-.63,2.2A.99.99,0,0,0,3,40a1.047,1.047,0,0,0,.3-.05L24,33.37V38H17a3.009,3.009,0,0,0-3,3V56a3.009,3.009,0,0,0,3,3h2v.5a2.5,2.5,0,0,0,5,0V59H40v.5a2.5,2.5,0,0,0,5,0V59h2a3.009,3.009,0,0,0,3-3V41a3.009,3.009,0,0,0-3-3H40V33.37l20.7,6.58A1.047,1.047,0,0,0,61,40a.99.99,0,0,0,.96-1.27ZM19,57H17a1,1,0,0,1-1-1V41a1,1,0,0,1,1-1h2Zm3,2.5a.5.5,0,0,1-1,0V59h1ZM22,57H21V40h1ZM45,40h2a1,1,0,0,1,1,1V56a1,1,0,0,1-1,1H45Zm-3,0h1V57H42Zm0,19h1v.5a.5.5,0,0,1-1,0ZM30.89,5.27,32,4.32l1.11.95a14.065,14.065,0,0,1,4.12,6.05,8.981,8.981,0,0,1-10.46,0A14.065,14.065,0,0,1,30.89,5.27ZM26,15.9a14.293,14.293,0,0,1,.25-2.54,10.9,10.9,0,0,0,11.5,0A14.293,14.293,0,0,1,38,15.9V31H26ZM26,33H38v5H37V35a1,1,0,0,0-1-1H28a1,1,0,0,0-1,1v3H26Zm9,3v2H29V36ZM4.47,37.48l.12-.4a11.05,11.05,0,0,1,5.27-6.61L24,22.69v8.58ZM40,57H24V40H40Zm0-25.73V22.69l14.14,7.78a11.05,11.05,0,0,1,5.27,6.61l.12.4Z" style="fill:#1e81ce"/><path d="M52,22A10,10,0,1,0,42,12,10.011,10.011,0,0,0,52,22Zm8-10a7.987,7.987,0,0,1-12.9,6.309l2.879-2.877A3.972,3.972,0,0,0,51,15.858V17a1,1,0,0,0,2,0V15.858a3.915,3.915,0,0,0,1.019-.425l.81.81a1,1,0,1,0,1.414-1.414l-.81-.81A3.915,3.915,0,0,0,55.858,13H57a1,1,0,0,0,0-2H55.858a4.006,4.006,0,0,0-.425-1.02L58.312,7.1A7.948,7.948,0,0,1,60,12ZM50,12a2,2,0,0,1,2-2,1.944,1.944,0,0,1,.509.074l-2.436,2.434A1.979,1.979,0,0,1,50,12Zm4,0a1.975,1.975,0,0,1-2.514,1.925l2.439-2.438A1.981,1.981,0,0,1,54,12ZM52,4a7.95,7.95,0,0,1,4.9,1.688L54.018,8.566A3.94,3.94,0,0,0,53,8.142V7a1,1,0,0,0-2,0V8.142a3.915,3.915,0,0,0-1.019.425l-.81-.81a1,1,0,1,0-1.414,1.414l.81.81A3.915,3.915,0,0,0,48.142,11H47a1,1,0,0,0,0,2h1.142a3.974,3.974,0,0,0,.423,1.016l-2.88,2.878A7.987,7.987,0,0,1,52,4Z" style="fill:#1e81ce"/><path d="M28.293,48.464l-2.829,2.829a1,1,0,0,0,0,1.414l2.829,2.829a1,1,0,0,0,1.414,0l2.829-2.829a1,1,0,0,0,0-1.414l-2.829-2.829A1,1,0,0,0,28.293,48.464ZM29,53.415,27.585,52,29,50.585,30.415,52Z" style="fill:#1e81ce"/><path d="M34,50h4a1,1,0,0,0,.891-1.454l-2.035-4A1,1,0,0,0,35.965,44h-.007a1,1,0,0,0-.891.559l-1.964,4A1,1,0,0,0,34,50Zm1.98-2.764.389.764H35.6Z" style="fill:#1e81ce"/><path d="M28,47a3,3,0,1,0-3-3A3,3,0,0,0,28,47Zm0-4a1,1,0,1,1-1,1A1,1,0,0,1,28,43Z" style="fill:#1e81ce"/></g></svg>